<?xml version="1.0" encoding="iso-8859-1"?>
<!-- Generator: Adobe Illustrator 19.0.0, SVG Export Plug-In . SVG Version: 6.00 Build 0)  -->
<svg version="1.1" id="Capa_1" xmlns="http://www.w3.org/2000/svg" xmlns:xlink="http://www.w3.org/1999/xlink" x="0px" y="0px"
	 viewBox="0 0 512 512" style="enable-background:new 0 0 512 512;" xml:space="preserve">
<g>
	<g>
		<path d="M499.954,305.293L458.007,221.4C455.826,83.247,329.896-23.191,188.04,4.37C99.249,21.62,28.507,93.039,12.01,182.086
			c-11.614,62.687,2.33,125.035,39.264,175.562C81.425,398.896,98.031,448.384,98.032,497c0,8.284,6.716,15,15,15h210.002
			c8.284,0,15-6.716,15-15v-39.201c0-4.301,3.499-7.8,7.8-7.8h67.201c24.813,0,45.001-20.187,45.001-45.001v-45.001h8.108
			c13.197,0,25.217-6.702,32.155-17.928C505.237,330.844,505.855,317.096,499.954,305.293z M472.779,326.299
			c-0.688,1.112-2.71,3.699-6.635,3.699h-23.109c-8.284,0-15,6.716-15,15v60.001c0,8.271-6.729,15-15,15h-67.201
			c-20.843,0-37.8,16.957-37.8,37.8V482H127.571c-3.06-50-21.279-99.924-52.079-142.056c-32.009-43.791-44.08-97.911-33.984-152.393
			C55.779,110.519,116.966,48.74,193.761,33.819c123.367-23.966,234.274,69.092,234.274,191.177c0,2.329,0.542,4.625,1.583,6.708
			l43.501,87.005C474.876,322.221,473.467,325.187,472.779,326.299z"/>
	</g>
</g>
<g>
	<g>
		<path d="M383.034,209.996h-15.838c-6.939-62.48-56.684-112.224-119.163-119.163V74.995c0-8.284-6.716-15-15-15
			c-8.284,0-15,6.716-15,15v15.838c-62.48,6.939-112.224,56.685-119.163,119.163H83.03c-8.284,0-15,6.716-15,15
			c0,8.284,6.716,15,15,15h15.838c6.939,62.48,56.684,112.224,119.163,119.163v15.838c0,8.284,6.716,15,15,15
			c8.284,0,15-6.716,15-15V359.16c62.48-6.939,112.224-56.685,119.163-119.163h15.838c8.284,0,15-6.716,15-15
			C398.034,216.713,391.319,209.996,383.034,209.996z M129.107,239.997h30.433c5.98,29.344,29.147,52.511,58.492,58.492v30.433
			C172.115,322.325,135.704,285.913,129.107,239.997z M218.032,267.417c-12.764-4.527-22.893-14.656-27.42-27.42h27.42V267.417z
			 M218.032,209.996h-27.42c4.527-12.764,14.656-22.893,27.42-27.42V209.996z M218.032,151.506
			c-29.344,5.98-52.511,29.147-58.492,58.492h-30.433c6.597-45.917,43.008-82.328,88.925-88.925V151.506z M248.032,239.897h27.42
			c-4.527,12.764-14.656,22.993-27.42,27.52V239.897z M248.032,209.996v-27.42c12.764,4.527,22.893,14.656,27.42,27.42H248.032z
			 M248.032,328.922v-30.433c29.344-5.98,52.511-29.247,58.492-58.592h30.433C330.36,285.813,293.949,322.326,248.032,328.922z
			 M306.524,209.996L306.524,209.996c-5.98-29.344-29.147-52.511-58.492-58.492v-30.433c45.917,6.597,82.328,43.009,88.925,88.925
			H306.524z"/>
	</g>
</g>
<g>
</g>
<g>
</g>
<g>
</g>
<g>
</g>
<g>
</g>
<g>
</g>
<g>
</g>
<g>
</g>
<g>
</g>
<g>
</g>
<g>
</g>
<g>
</g>
<g>
</g>
<g>
</g>
<g>
</g>
</svg>
